<svg xmlns="http://www.w3.org/2000/svg" viewBox="0 0 64 64" fill="none">
  <defs>
    <linearGradient id="grad6" x1="0%" y1="0%" x2="100%" y2="100%">
      <stop offset="0%" style="stop-color:#5E60CE;stop-opacity:1" />
      <stop offset="100%" style="stop-color:#7C73E6;stop-opacity:1" />
    </linearGradient>
  </defs>
  <!-- Book icon for intellectual character -->
  <circle cx="32" cy="32" r="28" fill="url(#grad6)" opacity="0.15"/>
  <!-- Book cover -->
  <path d="M14 20 L14 44 L32 48 L50 44 L50 20 L32 24 Z" fill="url(#grad6)" stroke="#5E60CE" stroke-width="2" stroke-linejoin="round"/>
  <!-- Book spine -->
  <path d="M32 24 L32 48" stroke="#4EA8DE" stroke-width="2"/>
  <!-- Pages detail -->
  <path d="M16 22 L16 42 L32 45 L32 25 Z" fill="#1A1A2E" opacity="0.4"/>
  <path d="M48 22 L48 42 L32 45 L32 25 Z" fill="#1A1A2E" opacity="0.3"/>
  <!-- Text lines -->
  <line x1="18" y1="28" x2="28" y2="28" stroke="#7C73E6" stroke-width="1.5" opacity="0.6"/>
  <line x1="18" y1="32" x2="26" y2="32" stroke="#7C73E6" stroke-width="1.5" opacity="0.6"/>
  <line x1="18" y1="36" x2="28" y2="36" stroke="#7C73E6" stroke-width="1.5" opacity="0.6"/>
  <line x1="36" y1="28" x2="46" y2="28" stroke="#7C73E6" stroke-width="1.5" opacity="0.6"/>
  <line x1="36" y1="32" x2="44" y2="32" stroke="#7C73E6" stroke-width="1.5" opacity="0.6"/>
  <line x1="36" y1="36" x2="46" y2="36" stroke="#7C73E6" stroke-width="1.5" opacity="0.6"/>
  <!-- Small sparkles -->
  <circle cx="12" cy="24" r="1.5" fill="#5E60CE" opacity="0.5"/>
  <circle cx="52" cy="28" r="1" fill="#7C73E6" opacity="0.4"/>
</svg>
